<?xml version="1.0" standalone="no"?><!DOCTYPE svg PUBLIC "-//W3C//DTD SVG 1.1//EN" "http://www.w3.org/Graphics/SVG/1.1/DTD/svg11.dtd"><svg t="1523083651204" class="icon" style="" viewBox="0 0 1024 1024" version="1.1" xmlns="http://www.w3.org/2000/svg" p-id="6613" xmlns:xlink="http://www.w3.org/1999/xlink" width="200" height="200"><defs><style type="text/css"></style></defs><path d="M516.266667 1002.666667C238.933333 1002.666667 17.066667 780.8 17.066667 503.466667c-4.266667-132.266667 46.933333-256 140.8-354.133334C256 55.466667 379.733333 0 516.266667 0c277.333333 0 503.466667 226.133333 503.466666 503.466667-4.266667 277.333333-230.4 499.2-503.466666 499.2z m0-917.333334C405.333333 85.333333 298.666667 128 221.866667 209.066667c-76.8 81.066667-119.466667 183.466667-119.466667 294.4 0 230.4 187.733333 413.866667 413.866667 413.866666 226.133333 0 413.866667-187.733333 418.133333-413.866666 0-230.4-187.733333-418.133333-418.133333-418.133334z" fill="" p-id="6614"></path><path d="M311.466667 746.666667c-12.8 0-21.333333-4.266667-29.866667-12.8-12.8-12.8-17.066667-25.6-12.8-42.666667l85.333333-324.266667c4.266667-12.8 17.066667-25.6 29.866667-29.866666l324.266667-85.333334c12.8-4.266667 29.866667 0 42.666666 12.8 12.8 12.8 17.066667 25.6 12.8 42.666667l-85.333333 324.266667c-4.266667 12.8-17.066667 25.6-29.866667 29.866666l-324.266666 85.333334h-12.8z m119.466666-332.8l-59.733333 230.4 230.4-59.733334 59.733333-230.4-230.4 59.733334z" fill="" p-id="6615"></path><path d="M512 503.466667m-42.666667 0a42.666667 42.666667 0 1 0 85.333334 0 42.666667 42.666667 0 1 0-85.333334 0Z" fill="" p-id="6616"></path></svg>