<?xml version="1.0" standalone="no"?><!DOCTYPE svg PUBLIC "-//W3C//DTD SVG 1.1//EN" "http://www.w3.org/Graphics/SVG/1.1/DTD/svg11.dtd"><svg t="1523083575048" class="icon" style="" viewBox="0 0 1024 1024" version="1.1" xmlns="http://www.w3.org/2000/svg" p-id="4895" xmlns:xlink="http://www.w3.org/1999/xlink" width="200" height="200"><defs><style type="text/css"></style></defs><path d="M515.277138 584.981175c91.565439 0 166.057013-74.489528 166.057013-166.04985 0-91.565439-74.491575-166.054967-166.057013-166.054967-91.559299 0-166.050874 74.488505-166.050874 166.054967C349.226265 510.491647 423.717839 584.981175 515.277138 584.981175zM515.277138 287.574624c72.435753 0 131.35363 58.926064 131.35363 131.3567 0 72.431659-58.917878 131.357723-131.35363 131.357723-72.427566 0-131.352607-58.926064-131.352607-131.357723C383.924531 346.501712 442.849572 287.574624 515.277138 287.574624z" p-id="4896"></path><path d="M966.322881 514.588965c0-248.709455-202.338335-451.04472-451.045743-451.04472-248.700245 0-451.043696 202.340381-451.043696 451.04472 0 129.002073 54.452169 245.515716 141.564179 327.795675l-0.094144 0.372483 7.688099 6.928806c48.703235 43.901883 105.783255 76.199473 167.218466 95.408977 0.288572 0.089028 0.578168 0.186242 0.86674 0.276293 3.003404 0.929162 6.019087 1.820462 9.048073 2.702552 0.538259 0.149403 1.073448 0.317225 1.616824 0.473791 2.899026 0.823761 5.819542 1.604544 8.741082 2.365884 2.835581 0.747014 5.689582 1.454118 8.543583 2.136663 1.062192 0.257873 2.116197 0.535189 3.180436 0.776689 2.434445 0.575098 4.878101 1.104147 7.325849 1.629103 1.004887 0.215918 2.004657 0.446162 3.004427 0.656963 2.408863 0.50142 4.837168 0.972141 7.262404 1.436722 1.062192 0.199545 2.121314 0.413416 3.186576 0.606821 2.362814 0.435928 4.733814 0.840134 7.113001 1.24434 1.156336 0.194428 2.308579 0.387833 3.466961 0.568958 2.297322 0.376577 4.596691 0.710175 6.9022 1.047866 1.276063 0.178055 2.547009 0.355087 3.828188 0.533143 2.206248 0.296759 4.41659 0.575098 6.634094 0.841158 1.419326 0.167822 2.840698 0.335644 4.260024 0.493234 2.096754 0.228197 4.193509 0.457418 6.30152 0.645706 1.598404 0.160659 3.200902 0.294712 4.804423 0.433882 1.954515 0.169869 3.90289 0.325411 5.862521 0.468674 1.837858 0.137123 3.679809 0.242524 5.51869 0.355087 1.757017 0.100284 3.50687 0.214894 5.263887 0.300852 2.241041 0.106424 4.476965 0.182149 6.716982 0.252757 1.39579 0.051165 2.788509 0.113587 4.187369 0.149403 3.669576 0.083911 7.347339 0.1361 11.029194 0.1361l0 0 0 0c0.011256 0 0.021489 0 0.024559 0 3.676739 0 7.348362-0.052189 11.002588-0.1361 1.416256-0.035816 2.829442-0.099261 4.239558-0.149403 2.217505-0.070608 4.444219-0.146333 6.6607-0.252757 1.775436-0.085958 3.542686-0.200568 5.324262-0.300852 1.818415-0.119727 3.637854-0.217964 5.456269-0.346901 1.980097-0.150426 3.949962-0.317225 5.918803-0.483001 1.583055-0.13303 3.155876-0.267083 4.734838-0.418532 2.12336-0.205685 4.250814-0.434905 6.367011-0.663102 1.39579-0.152473 2.786463-0.317225 4.179183-0.476861 2.24718-0.275269 4.480035-0.552585 6.713912-0.859577 1.248434-0.167822 2.489704-0.344854 3.730974-0.518816 2.340301-0.337691 4.670369-0.683569 6.994298-1.051959 1.12359-0.181125 2.231831-0.36839 3.346211-0.555655 2.412956-0.408299 4.833075-0.821715 7.236821-1.266853 1.010003-0.183172 2.01182-0.385786 3.016707-0.578168 2.483564-0.469698 4.960988-0.953721 7.436366-1.467421 0.900509-0.189312 1.810229-0.399089 2.720971-0.595564 2.536776-0.548492 5.085832-1.096984 7.612375-1.682315 0.787946-0.189312 1.564635-0.396019 2.359744-0.582261 3.409656-0.812505 6.800893-1.665942 10.17985-2.564405 2.618641-0.681522 5.235235-1.385557 7.838525-2.127454 0.666172-0.188288 1.307785-0.388856 1.966795-0.581238 2.90619-0.835018 5.808286-1.694595 8.698103-2.589988 0.370437-0.109494 0.733711-0.234337 1.096984-0.348947 3.219321-1.006933 6.431479-2.047636 9.622148-3.1262 0.039909-0.011256 0.078795-0.021489 0.10847-0.040932 57.664328-19.50217 111.228267-50.644447 157.299559-92.177376l7.688099-6.928806-0.093121-0.36839C911.871735 760.104681 966.322881 643.592061 966.322881 514.588965zM98.932732 514.588965c0-229.573629 186.769754-416.346453 416.344406-416.346453 229.574652 0 416.34236 186.772824 416.34236 416.346453 0 112.48898-44.854581 214.683501-117.606535 289.674449-12.242835-35.440164-35.512818-83.241866-78.964446-124.208906-56.440453-53.219085-130.378419-80.199577-219.780589-80.199577-89.39296 0-163.340135 26.980491-219.776496 80.199577-43.453674 40.964994-66.724681 88.768743-78.964446 124.208906C143.792429 729.264279 98.932732 627.077945 98.932732 514.588965zM648.69887 909.012106c-0.037862 0.011256-0.073678 0.030699-0.11768 0.039909-2.918469 0.988514-5.848195 1.934049-8.785084 2.860141-0.751107 0.226151-1.515516 0.466628-2.27174 0.694825-2.227738 0.690732-4.456498 1.353834-6.702656 1.997494-1.167592 0.331551-2.331092 0.671289-3.502777 0.997724-1.824555 0.505513-3.64911 1.001817-5.491061 1.490957-1.466398 0.382717-2.934842 0.776689-4.403287 1.140986-1.514493 0.385786-3.038196 0.751107-4.561899 1.11745-1.720178 0.417509-3.432169 0.832971-5.154393 1.222851-1.192152 0.275269-2.38942 0.522909-3.591805 0.785899-2.01796 0.435928-4.043083 0.880043-6.074346 1.297552-0.039909 0.00921-0.075725 0.021489-0.118704 0.027629-5.665023 1.13894-11.354606 2.163269-17.067724 3.070942-0.341784 0.054235-0.677429 0.11768-1.01512 0.163729-2.156106 0.333598-4.319375 0.64059-6.478552 0.947582-1.098008 0.152473-2.194992 0.320295-3.291976 0.461511-1.949398 0.255827-3.903913 0.487094-5.857405 0.719384-1.343601 0.156566-2.690272 0.320295-4.041036 0.466628-1.815345 0.196475-3.631714 0.376577-5.453199 0.541329-1.529843 0.149403-3.069919 0.287549-4.608971 0.417509-1.687432 0.13917-3.377934 0.276293-5.059226 0.396019-1.74269 0.11768-3.489474 0.226151-5.240351 0.329505-1.527796 0.091074-3.046383 0.185218-4.576225 0.254803-2.076288 0.097214-4.158716 0.170892-6.247284 0.236384-1.222851 0.039909-2.442632 0.099261-3.667529 0.115634-3.332908 0.080841-6.67605 0.12996-10.031471 0.12996-0.005117 0-0.011256 0-0.020466 0-3.358491 0-6.703679-0.049119-10.041704-0.12996-1.217734-0.017396-2.426259-0.070608-3.63683-0.115634-2.102894-0.065492-4.199649-0.140193-6.293333-0.236384-1.51347-0.069585-3.0208-0.163729-4.52506-0.254803-1.76725-0.099261-3.532453-0.204661-5.294586-0.331551-1.671059-0.11768-3.334955-0.25071-5.000897-0.38988-1.569752-0.134053-3.128247-0.276293-4.684696-0.421602-1.797949-0.164752-3.586688-0.344854-5.381567-0.533143-1.375324-0.147356-2.76088-0.318248-4.136204-0.474814-1.920746-0.228197-3.845585-0.455371-5.764284-0.711198-1.152243-0.149403-2.300392-0.320295-3.448542-0.483001-2.105964-0.300852-4.213975-0.590448-6.315846-0.912789-0.48607-0.081864-0.971118-0.166799-1.451048-0.243547-5.372358-0.859577-10.720156-1.813299-16.042371-2.882654-0.26606-0.058328-0.529049-0.100284-0.792039-0.149403-1.948375-0.396019-3.891633-0.829901-5.835915-1.257643-1.278109-0.274246-2.558265-0.541329-3.834328-0.829901-1.662873-0.38374-3.319605-0.785899-4.982478-1.181919-1.587148-0.384763-3.176342-0.76441-4.754281-1.162476-1.413186-0.356111-2.828418-0.733711-4.233418-1.103124-1.895163-0.50449-3.789303-1.016143-5.669116-1.540076-1.118474-0.311085-2.231831-0.633427-3.345188-0.950651-2.304486-0.671289-4.604878-1.352811-6.897084-2.056845-0.696872-0.204661-1.394766-0.424672-2.086521-0.642636-54.373375-17.068747-103.966886-45.017286-146.244782-81.269955 16.430204-57.20691 76.440973-196.108446 270.691095-196.108446 194.249099 0 254.268054 138.900513 270.692119 196.108446C746.028593 864.909655 699.560258 891.76121 648.69887 909.012106z" p-id="4897"></path></svg>